<mxfile>
    <diagram id="kSr8-vK0yD3OGPDTnl1q" name="Page-1">
        <mxGraphModel dx="1945" dy="498" grid="1" gridSize="10" guides="1" tooltips="1" connect="1" arrows="1" fold="1" page="1" pageScale="1" pageWidth="827" pageHeight="1169" math="0" shadow="0">
            <root>
                <mxCell id="0"/>
                <mxCell id="1" parent="0"/>
                <mxCell id="2" value="AbstractFactory" style="swimlane;fontStyle=1;align=center;verticalAlign=top;childLayout=stackLayout;horizontal=1;startSize=26;horizontalStack=0;resizeParent=1;resizeParentMax=0;resizeLast=0;collapsible=1;marginBottom=0;" vertex="1" parent="1">
                    <mxGeometry x="250" y="240" width="270" height="80" as="geometry"/>
                </mxCell>
                <mxCell id="5" value="+ createSportCar(): AbstractSportCar;&#10;+ createPremiumCar(): AbstractPremiumCar;" style="text;strokeColor=none;fillColor=none;align=left;verticalAlign=top;spacingLeft=4;spacingRight=4;overflow=hidden;rotatable=0;points=[[0,0.5],[1,0.5]];portConstraint=eastwest;" vertex="1" parent="2">
                    <mxGeometry y="26" width="270" height="54" as="geometry"/>
                </mxCell>
                <mxCell id="6" value="" style="endArrow=block;dashed=1;endFill=0;endSize=12;html=1;entryX=0.5;entryY=0;entryDx=0;entryDy=0;exitX=0.493;exitY=1.023;exitDx=0;exitDy=0;exitPerimeter=0;" edge="1" parent="1" source="11" target="2">
                    <mxGeometry width="160" relative="1" as="geometry">
                        <mxPoint x="385" y="140" as="sourcePoint"/>
                        <mxPoint x="490" y="260" as="targetPoint"/>
                    </mxGeometry>
                </mxCell>
                <mxCell id="7" value="" style="endArrow=block;dashed=1;endFill=0;endSize=12;html=1;exitX=0.5;exitY=0;exitDx=0;exitDy=0;" edge="1" parent="1" source="12" target="5">
                    <mxGeometry width="160" relative="1" as="geometry">
                        <mxPoint x="384" y="360" as="sourcePoint"/>
                        <mxPoint x="350" y="300" as="targetPoint"/>
                    </mxGeometry>
                </mxCell>
                <mxCell id="8" value="SportCarFactory" style="swimlane;fontStyle=1;align=center;verticalAlign=top;childLayout=stackLayout;horizontal=1;startSize=26;horizontalStack=0;resizeParent=1;resizeParentMax=0;resizeLast=0;collapsible=1;marginBottom=0;" vertex="1" parent="1">
                    <mxGeometry x="250" y="60" width="270" height="70" as="geometry"/>
                </mxCell>
                <mxCell id="11" value="+ createSportCar(): AbstractSportCar&#10;+ createPremiumCar(): AbstractPremiumCar;" style="text;strokeColor=none;fillColor=none;align=left;verticalAlign=top;spacingLeft=4;spacingRight=4;overflow=hidden;rotatable=0;points=[[0,0.5],[1,0.5]];portConstraint=eastwest;" vertex="1" parent="8">
                    <mxGeometry y="26" width="270" height="44" as="geometry"/>
                </mxCell>
                <mxCell id="12" value="PremiumCarFactory" style="swimlane;fontStyle=1;align=center;verticalAlign=top;childLayout=stackLayout;horizontal=1;startSize=26;horizontalStack=0;resizeParent=1;resizeParentMax=0;resizeLast=0;collapsible=1;marginBottom=0;" vertex="1" parent="1">
                    <mxGeometry x="250" y="480" width="270" height="70" as="geometry"/>
                </mxCell>
                <mxCell id="13" value="+ createSportCar(): AbstractSportCar&#10;+ createPremiumCar(): AbstractPremiumCar;" style="text;strokeColor=none;fillColor=none;align=left;verticalAlign=top;spacingLeft=4;spacingRight=4;overflow=hidden;rotatable=0;points=[[0,0.5],[1,0.5]];portConstraint=eastwest;" vertex="1" parent="12">
                    <mxGeometry y="26" width="270" height="44" as="geometry"/>
                </mxCell>
                <mxCell id="18" value="Lamborgini&#10;" style="swimlane;fontStyle=1;align=center;verticalAlign=top;childLayout=stackLayout;horizontal=1;startSize=26;horizontalStack=0;resizeParent=1;resizeParentMax=0;resizeLast=0;collapsible=1;marginBottom=0;fontFamily=Verdana;" vertex="1" parent="1">
                    <mxGeometry x="-180" y="160" width="200" height="52" as="geometry"/>
                </mxCell>
                <mxCell id="21" value="+ usefulFunctionSportCar(): string" style="text;strokeColor=none;fillColor=none;align=left;verticalAlign=top;spacingLeft=4;spacingRight=4;overflow=hidden;rotatable=0;points=[[0,0.5],[1,0.5]];portConstraint=eastwest;" vertex="1" parent="18">
                    <mxGeometry y="26" width="200" height="26" as="geometry"/>
                </mxCell>
                <mxCell id="22" value="Ferrari" style="swimlane;fontStyle=1;align=center;verticalAlign=top;childLayout=stackLayout;horizontal=1;startSize=26;horizontalStack=0;resizeParent=1;resizeParentMax=0;resizeLast=0;collapsible=1;marginBottom=0;fontFamily=Verdana;" vertex="1" parent="1">
                    <mxGeometry x="40" y="160" width="200" height="52" as="geometry"/>
                </mxCell>
                <mxCell id="23" value="+ usefulFunctionSportCar(): string" style="text;strokeColor=none;fillColor=none;align=left;verticalAlign=top;spacingLeft=4;spacingRight=4;overflow=hidden;rotatable=0;points=[[0,0.5],[1,0.5]];portConstraint=eastwest;" vertex="1" parent="22">
                    <mxGeometry y="26" width="200" height="26" as="geometry"/>
                </mxCell>
                <mxCell id="25" value="Maybach" style="swimlane;fontStyle=1;align=center;verticalAlign=top;childLayout=stackLayout;horizontal=1;startSize=26;horizontalStack=0;resizeParent=1;resizeParentMax=0;resizeLast=0;collapsible=1;marginBottom=0;fontFamily=Verdana;" vertex="1" parent="1">
                    <mxGeometry x="-190" y="390" width="220" height="52" as="geometry"/>
                </mxCell>
                <mxCell id="26" value="+ usefulFunctionPremiumCar(): string" style="text;strokeColor=none;fillColor=none;align=left;verticalAlign=top;spacingLeft=4;spacingRight=4;overflow=hidden;rotatable=0;points=[[0,0.5],[1,0.5]];portConstraint=eastwest;" vertex="1" parent="25">
                    <mxGeometry y="26" width="220" height="26" as="geometry"/>
                </mxCell>
                <mxCell id="27" value="Bentley" style="swimlane;fontStyle=1;align=center;verticalAlign=top;childLayout=stackLayout;horizontal=1;startSize=26;horizontalStack=0;resizeParent=1;resizeParentMax=0;resizeLast=0;collapsible=1;marginBottom=0;fontFamily=Verdana;" vertex="1" parent="1">
                    <mxGeometry x="50" y="390" width="220" height="52" as="geometry"/>
                </mxCell>
                <mxCell id="28" value="+ usefulFunctionPremiumCar(): string" style="text;strokeColor=none;fillColor=none;align=left;verticalAlign=top;spacingLeft=4;spacingRight=4;overflow=hidden;rotatable=0;points=[[0,0.5],[1,0.5]];portConstraint=eastwest;" vertex="1" parent="27">
                    <mxGeometry y="26" width="220" height="26" as="geometry"/>
                </mxCell>
                <mxCell id="33" value="AbstractSportCar" style="swimlane;fontStyle=1;align=center;verticalAlign=top;childLayout=stackLayout;horizontal=1;startSize=26;horizontalStack=0;resizeParent=1;resizeParentMax=0;resizeLast=0;collapsible=1;marginBottom=0;fontFamily=Verdana;" vertex="1" parent="1">
                    <mxGeometry x="-70" y="50" width="210" height="52" as="geometry"/>
                </mxCell>
                <mxCell id="36" value="+usefulFunctionSportCar(): string;" style="text;strokeColor=none;fillColor=none;align=left;verticalAlign=top;spacingLeft=4;spacingRight=4;overflow=hidden;rotatable=0;points=[[0,0.5],[1,0.5]];portConstraint=eastwest;" vertex="1" parent="33">
                    <mxGeometry y="26" width="210" height="26" as="geometry"/>
                </mxCell>
                <mxCell id="37" value="AbstractPremiumCar" style="swimlane;fontStyle=1;align=center;verticalAlign=top;childLayout=stackLayout;horizontal=1;startSize=26;horizontalStack=0;resizeParent=1;resizeParentMax=0;resizeLast=0;collapsible=1;marginBottom=0;fontFamily=Verdana;" vertex="1" parent="1">
                    <mxGeometry x="-180" y="560" width="380" height="90" as="geometry"/>
                </mxCell>
                <mxCell id="38" value="+ usefulFunctionPremiumCar(): string;&#10;+ anotherUsefulFunctionSport(collaborator: AbstractSportCar): string" style="text;strokeColor=none;fillColor=none;align=left;verticalAlign=top;spacingLeft=4;spacingRight=4;overflow=hidden;rotatable=0;points=[[0,0.5],[1,0.5]];portConstraint=eastwest;" vertex="1" parent="37">
                    <mxGeometry y="26" width="380" height="64" as="geometry"/>
                </mxCell>
                <mxCell id="42" value="" style="endArrow=open;html=1;endSize=12;startArrow=diamondThin;startSize=14;startFill=1;edgeStyle=orthogonalEdgeStyle;align=left;verticalAlign=bottom;dashed=1;dashPattern=1 2;fontFamily=Verdana;exitX=0.546;exitY=1.075;exitDx=0;exitDy=0;entryX=1;entryY=0.5;entryDx=0;entryDy=0;exitPerimeter=0;" edge="1" parent="1" source="13" target="38">
                    <mxGeometry x="-0.7017" y="38" relative="1" as="geometry">
                        <mxPoint x="410" y="410" as="sourcePoint"/>
                        <mxPoint x="570" y="410" as="targetPoint"/>
                        <Array as="points">
                            <mxPoint x="397" y="618"/>
                        </Array>
                        <mxPoint as="offset"/>
                    </mxGeometry>
                </mxCell>
                <mxCell id="43" value="" style="endArrow=open;html=1;endSize=12;startArrow=diamondThin;startSize=14;startFill=1;edgeStyle=orthogonalEdgeStyle;align=left;verticalAlign=bottom;dashed=1;dashPattern=1 2;fontFamily=Verdana;entryX=1;entryY=0.538;entryDx=0;entryDy=0;entryPerimeter=0;" edge="1" parent="1" target="36">
                    <mxGeometry x="-0.7017" y="38" relative="1" as="geometry">
                        <mxPoint x="250" y="90" as="sourcePoint"/>
                        <mxPoint x="210" y="628" as="targetPoint"/>
                        <Array as="points">
                            <mxPoint x="190" y="90"/>
                            <mxPoint x="190" y="90"/>
                        </Array>
                        <mxPoint as="offset"/>
                    </mxGeometry>
                </mxCell>
                <mxCell id="45" value="" style="endArrow=block;dashed=1;endFill=0;endSize=12;html=1;dashPattern=1 2;fontFamily=Verdana;exitX=0.25;exitY=0;exitDx=0;exitDy=0;entryX=0.473;entryY=1.038;entryDx=0;entryDy=0;entryPerimeter=0;" edge="1" parent="1" source="37" target="26">
                    <mxGeometry width="160" relative="1" as="geometry">
                        <mxPoint x="180" y="160" as="sourcePoint"/>
                        <mxPoint x="340" y="160" as="targetPoint"/>
                    </mxGeometry>
                </mxCell>
                <mxCell id="46" value="" style="endArrow=block;dashed=1;endFill=0;endSize=12;html=1;dashPattern=1 2;fontFamily=Verdana;exitX=0.714;exitY=1.077;exitDx=0;exitDy=0;exitPerimeter=0;" edge="1" parent="1" source="36">
                    <mxGeometry width="160" relative="1" as="geometry">
                        <mxPoint x="-31.019999999999982" y="114.99000000000001" as="sourcePoint"/>
                        <mxPoint x="79" y="161" as="targetPoint"/>
                        <Array as="points">
                            <mxPoint x="80" y="130"/>
                        </Array>
                    </mxGeometry>
                </mxCell>
                <mxCell id="47" value="" style="endArrow=block;dashed=1;endFill=0;endSize=12;html=1;dashPattern=1 2;fontFamily=Verdana;" edge="1" parent="1">
                    <mxGeometry width="160" relative="1" as="geometry">
                        <mxPoint x="-40" y="107" as="sourcePoint"/>
                        <mxPoint x="-41" y="162" as="targetPoint"/>
                    </mxGeometry>
                </mxCell>
                <mxCell id="48" value="" style="endArrow=block;dashed=1;endFill=0;endSize=12;html=1;dashPattern=1 2;fontFamily=Verdana;exitX=0.792;exitY=-0.033;exitDx=0;exitDy=0;entryX=0.314;entryY=1.038;entryDx=0;entryDy=0;entryPerimeter=0;exitPerimeter=0;" edge="1" parent="1" source="37" target="28">
                    <mxGeometry width="160" relative="1" as="geometry">
                        <mxPoint x="-75" y="570" as="sourcePoint"/>
                        <mxPoint x="120" y="450" as="targetPoint"/>
                    </mxGeometry>
                </mxCell>
            </root>
        </mxGraphModel>
    </diagram>
</mxfile>